<svg width="16" height="21" viewBox="0 0 16 21" fill="none" xmlns="http://www.w3.org/2000/svg">
<path d="M8 0C5.87827 0 3.84344 0.842855 2.34315 2.34315C0.842854 3.84344 0 5.87827 0 8C0 14.855 8 20.57 8 20.57C8 20.57 16 14.855 16 8C16 5.87827 15.1571 3.84344 13.6569 2.34315C12.1566 0.842855 10.1217 0 8 0ZM8 12C7.20887 12 6.43552 11.7654 5.77772 11.3259C5.11992 10.8864 4.60723 10.2616 4.30448 9.53073C4.00173 8.79983 3.92252 7.99556 4.07686 7.21964C4.2312 6.44372 4.61216 5.73098 5.17157 5.17157C5.73098 4.61216 6.44371 4.2312 7.21964 4.07686C7.99556 3.92252 8.79983 4.00173 9.53073 4.30448C10.2616 4.60723 10.8864 5.11992 11.3259 5.77772C11.7654 6.43552 12 7.20887 12 8C12 9.06087 11.5786 10.0783 10.8284 10.8284C10.0783 11.5786 9.06087 12 8 12Z" fill="#C20033"/>
</svg>
